<svg xmlns="http://www.w3.org/2000/svg" fill="#fff" baseProfile="tiny-ps" version="1.2" viewBox="0 0 329 88"><g><path d="M320.62 8.81V.08h1.74l2.07 6.18c.19.57.33 1 .42 1.29.1-.32.25-.78.46-1.4l2.1-6.07h1.55v8.73h-1.11V1.5l-2.55 7.31h-1.04l-2.52-7.43v7.43h-1.12zM315.43 8.81v-7.7h-2.88V.08h6.93v1.03h-2.89v7.7h-1.16z"/><path d="M294.04.37l-14.22 65.34h17.45L311.66.37h-17.62z"/><path fill-rule="evenodd" d="M279.34 31.65l-7.45 34.06h-17.18l1.15-5.15c-9.35 9.31-32.84 9.9-29.02-11.48 2.68-12.48 15.66-16.44 34.94-16.44 1.33-5.54-2.49-6.93-8.98-6.73-6.49.2-14.31 2.38-16.79 3.57L237.54 17c4.96-.99 11.45-3.17 19.65-3.17 12.03-.19 25.2 3.37 22.15 17.82zm-20.05 12.48h-4.19c-3.25 0-8.59.79-10.5 4.16-2.49 3.96.95 7.32 4.77 7.13 4.39-.2 8.01-2.18 8.97-6.74.38-1.58.57-2.97.95-4.55zM230.89 22.74c-2.87 13.47-13.59 21.39-26.6 21.39h-13.2l-4.78 21.58h-18.56L181.91.57h31.95c9.18 0 20.28 6.93 17.03 22.17zm-24.11-8.91h-9.18l-3.83 17.82h8.61c4.78 0 9.76-3.96 10.91-8.91 1.14-4.95-1.73-8.91-6.51-8.91z"/><path d="M119.41 14.77h17.16l2.77 30.34 16.79-30.34h17.71l-40.77 72.61h-19.19l12.54-21.35-7.01-51.26z"/><path fill-rule="evenodd" d="M111.94 31.65l-7.36 34.06H87.42l1.13-5.15c-9.05 9.31-32.24 9.9-28.47-11.48 2.64-12.48 15.47-16.44 34.51-16.44 1.13-5.54-2.64-6.93-9.05-6.73-6.41.2-14.14 2.38-16.41 3.57L70.64 17c4.72-.99 11.13-3.17 19.24-3.17 11.87-.19 25.07 3.37 22.06 17.82zm-19.8 12.48H87.8c-3.02 0-8.3.79-10.18 4.16-2.45 3.96.75 7.32 4.52 7.13 4.34-.2 8.11-2.18 9.06-6.74.18-1.58.56-2.97.94-4.55zM64.27 22.74C61.39 36.21 50.65 44.13 37.8 44.13H24.37l-4.6 21.58H.97L15.17.57H47.2c9.4 0 20.33 6.93 17.07 22.17zm-23.98-8.91h-9.2l-4.03 17.82h8.82c4.8 0 9.59-3.96 10.74-8.91 1.35-4.95-1.72-8.91-6.33-8.91z"/></g></svg>