<svg xmlns="http://www.w3.org/2000/svg" fill="#fff" baseProfile="tiny-ps" version="1.2" viewBox="0 0 1545 175">
  <g>
    <g>
      <path d="M944.83 81.93l-13.1-10.4c-21.07-16.86-27.03-24.62-27.03-37.25 0-16.17 11.95-25.7 27.26-25.7 20.39 0 26.37 9.3 27.69 11.73 1.33 2.44 2.66 8.43 2.87 11.1.23 1.77.46 2.87 1.77 2.87 1.11 0 1.56-1.54 1.56-5.1 0-15.06.9-22.39.9-23.48 0-1.11-.46-1.56-2.23-1.56s-3.54-.23-7.75-1.1c-5.52-1.31-11.94-2.2-20.6-2.2-28.16 0-45.86 16.16-45.86 39.87 0 15.08 5.31 28.81 28.78 48.09l9.98 8.2c19.07 15.73 25.49 24.6 25.49 39.89 0 14.18-10.42 29.47-31.68 29.47-14.87 0-29.47-6.19-32.83-22.61-.65-3.1-.65-6.19-.65-8.19 0-1.77-.21-2.44-1.54-2.44-1.1 0-1.55 1.11-1.76 3.56-.24 3.53-1.11 12.39-1.11 23.49 0 5.97.21 6.86 3.29 8.4 9.11 4.43 19.3 5.97 29.72 5.97 33.9 0 52.29-21.02 52.29-46.07 0-18.84-8.88-33.26-25.46-46.54zM1076.49 52.96c-1.25-.05-5.43 1.48-15.36 1.48h-58.16c-1.86.13-7.77-.18-12.25-.65-4.2-.39-5.73-1.94-6.82-1.94-.63 0-1.26 2.02-1.57 2.95-.31 1.24-3.4 14.57-3.4 16.13 0 .92.3 1.4.78 1.4.61 0 1.08-.33 1.54-1.56.47-1.1.94-2.17 2.65-4.81 2.45-3.65 6.2-4.73 15.81-4.89l22.95-.3v65.52c0 14.88 0 27.11-.77 33.64-.63 4.47-1.4 7.88-4.51 8.51-1.37.3-3.25.61-4.64.61-.92 0-1.24.46-1.24.93 0 .94.77 1.24 2.48 1.24 4.65.02 14.42-.43 15.2-.43.79-.02 10.55.43 19.08.43 1.7 0 2.49-.45 2.49-1.24 0-.47-.32-.93-1.26-.93-1.38 0-4.79-.31-6.98-.61-4.64-.63-5.58-4.04-6.03-8.51-.8-6.53-.8-18.76-.8-33.64V60.77l19.56.3c14.89.33 18.45 3.88 19.07 8.53l.16 1.7c.14 2.18.47 2.63 1.25 2.63.6 0 1.07-.62 1.07-2 0-1.72.47-12.41.47-17.06 0-.98 0-1.91-.77-1.91zM1205.69 54.07c-4.66-.03-11.92.45-13 .45-.93.01-9.45-.45-16.44-.45-1.72 0-2.49.31-2.49 1.23 0 .63.63.93 1.26.93 1.4 0 4.04.17 5.28.47 5.11 1.08 6.37 3.57 6.68 8.85.31 4.95.31 9.29.31 33.48v19.38c0 15.95-1.88 29.12-9.02 37.98-5.59 6.66-14.9 11.14-24.37 11.14-8.85 0-15.84-1.39-23.46-8.52-6.68-6.35-11.65-15.97-11.65-38.29V99.03c0-24.19 0-28.53.31-33.48.3-5.44 1.55-8.24 5.74-8.85 1.87-.3 2.8-.47 3.88-.47.63 0 1.26-.3 1.26-.93 0-.92-.77-1.23-2.48-1.23-4.67-.03-13.99.45-15.37.45-1.4.01-10.86-.45-17.84-.45-1.71 0-2.48.31-2.48 1.23 0 .63.62.93 1.24.93 1.4 0 4.02.17 5.28.47 5.11 1.08 6.35 3.57 6.67 8.85.31 4.95.31 9.29.31 33.48v22.63c0 22.62 5.89 33.48 13.48 40.76 11.02 10.42 26.72 11.03 32 11.03 9.16 0 20.8-1.55 31.99-11.49 12.36-11.02 14.22-29.61 14.22-46.35V99.03c0-24.19 0-28.53.31-33.48.31-5.44 1.54-8.08 5.74-8.85 1.85-.47 2.79-.47 3.88-.47.63 0 1.24-.3 1.24-.93 0-.92-.79-1.23-2.48-1.23z" />
      <path fill-rule="evenodd" d="M1346.59 111.03c0 32.85-22.15 61.52-63.79 61.52-13.36 0-32.91-1.87-34.46-1.76-.77 0-10.56.45-15.21.43-1.7 0-2.47-.3-2.47-1.24 0-.47.3-.93 1.24-.93 1.39 0 3.26-.15 4.66-.61 2.48-.78 3.25-2.18 4.19-6.66.77-4.04 1.07-16.61 1.07-35.52V98.98c0-26.06-.16-32.56-.47-35.19-.46-3.72-1.4-6.05-6.51-7.15-1.25-.3-3.88-.46-5.28-.46-.61 0-1.24-.31-1.24-.92 0-.94.79-1.24 2.49-1.24 6.97 0 16.76.47 17.53.5 1.86 0 19.87-.48 29.19-.5 36.8 0 69.06 14.73 69.06 57.01zm-13.93 4.81c0-37.19-28.43-56.56-65.71-56.56-3.08 0-8.83.47-10.09 1.09-1.55.77-2.01 1.38-2.01 14.41v58.27c0 16.57.46 25.86 2.01 28.04 2.34 3.1 8.08 6.19 26.42 6.19 30.12 0 49.38-19.69 49.38-51.44z" />
      <path d="M1404.73 169.05c-1.4 0-4.81-.31-7-.61-4.65-.63-5.58-4.04-6.02-8.53-.8-6.51-.8-18.75-.8-33.64V99.03c0-24.19 0-28.53.32-33.48.31-5.44 1.55-8.08 5.73-8.85 1.87-.3 2.8-.47 3.88-.47.63 0 1.26-.3 1.26-.93 0-.92-.78-1.23-2.48-1.23-4.69-.03-14.44.45-15.22.45-.77.01-12.4-.45-17.52-.45-1.7 0-2.48.31-2.48 1.23 0 .63.62.93 1.22.93 1.42 0 4.04.17 5.28.47 5.14 1.08 6.06 3.41 6.53 7.13.3 2.63.47 9.14.47 35.19v27.25c0 18.92-.32 31.47-1.09 35.51-.94 4.48-1.71 5.88-4.19 6.66-1.39.46-3.26.61-4.66.61-.92 0-1.22.46-1.22.93 0 .94.77 1.24 2.48 1.24 2.78.02 14.41-.43 15.18-.43.78-.02 10.53.43 19.07.43 1.71 0 2.5-.45 2.5-1.24 0-.47-.3-.93-1.24-.93z" />
      <path fill-rule="evenodd" d="M1544.45 109.99c0 34.75-24.46 63.46-61.92 63.46-42.58 0-60.14-33.07-60.14-60.99 0-25.15 18.19-60.67 61.08-60.67 34.97 0 60.98 22.04 60.98 58.2zm-14.81 4.34c0-37.24-22.7-57.26-47.25-57.26-25.98 0-45.4 17.07-45.4 51.05 0 36.15 21.77 59.41 49.74 59.41 13.98 0 42.91-8.07 42.91-53.2z" />
      <path d="M773.79 150.29c-.78 0-1.1.63-1.41 2.33-1.07 6.34-2.94 9.44-6.98 11.15-4.01 1.72-10.84 1.72-14.88 1.72-15.22 0-18-2.48-18-12.72v-40.12c0-.64.33-1.09 1.1-1.09 2.62 0 17.98.31 22.18.78 6.03.62 7.45 3.24 8.05 5.41.63 2.03.63 3.57.63 5.13 0 .76.31 1.38 1.08 1.38.94 0 1.08-1.24 1.08-2.94 0-7.6 1.87-17.97 1.87-18.6 0-.93-.3-1.24-.77-1.24-.63 0-1.24.77-2.34 2.01-1.38 1.56-3.57 1.88-7.28 2.19-3.56.3-22.64.3-24.67.3-.77 0-.93-.47-.93-1.54V61.51c0-1.08.33-1.38.93-1.38 3.11 0 17.07.47 18 .47 9.14 0 12.88 3.09 13.81 5.11.93 2 1.38 4.66 1.38 5.9 0 1.07.32 1.69 1.1 1.69.77 0 1.07-.77 1.24-1.54.32-1.86.62-8.7.77-10.25.48-4.34 1.25-6.21 1.25-7.3 0-.77-.33-1.71-.93-1.71-.63 0-1.26.63-2.18.94-.62.16-4.34.48-6.83.63-2.48.27-18.29.45-35.03.45-.79.01-10.56-.45-17.55-.45-1.69 0-2.49.31-2.49 1.23 0 .63.63.93 1.26.93 1.4 0 4.02.17 5.26.47 5.13 1.08 6.06 3.41 6.52 7.13.32 2.63.46 9.14.46 35.19v27.25c0 18.92-.3 31.47-1.07 35.51-.93 4.48-1.71 5.88-4.19 6.66-1.42.46-3.27.61-4.64.61-.94 0-1.26.46-1.26.93 0 .94.77 1.24 2.48 1.24 3.42.02 11.18-.43 15.22-.43 4.48-.07 14.88.87 38.3.87 6.04 0 7.28 0 8.36-4.03.77-3.24 2.03-13.78 2.03-15.01 0-1.09 0-2.33-.93-2.33z" />
      <path fill-rule="evenodd" d="M169.59 169.67c0 1.33-1.99 1.77-4.43 1.77-3.33 0-19.51 0-34.79-.44-4.21-.22-6.65-.22-6.65-1.56 0-.87.89-1.53 1.57-1.53.43 0 1.76-1.09 1.76-3.09 0-.66 0-2.02-.45-2.88l-20.59-54.55c-.45-.88-.89-1.33-2-1.33H56.38c-1.1 0-1.77.67-2.22 1.77l-13.29 39.25c-1.99 5.55-3.11 10.86-3.11 14.86 0 4.42 4.66 6.42 8.42 6.42h2.22c1.55 0 2.22.42 2.22 1.31 0 1.33-1.32 1.77-3.33 1.77-5.32 0-14.83-.66-17.27-.66-2.44 0-14.63.66-25.04.66-2.87 0-4.2-.44-4.2-1.77 0-.89.87-1.31 1.99-1.31 1.54 0 4.64-.23 6.42-.45 10.19-1.32 14.62-9.74 18.61-20.83L78.09 9.46c2.65-7.3 3.54-8.65 4.88-8.65 1.33 0 2.22 1.12 4.88 7.99 3.31 8.41 38.1 99.93 51.61 133.62 7.98 19.73 14.39 23.28 19.06 24.61 3.31 1.1 6.64 1.33 8.85 1.33 1.33 0 2.22.21 2.22 1.31zm-67.57-73.1L80.98 36.72c-.67-1.77-1.12-2.44-1.79-2.44-.43 0-1.1.9-1.54 2.44l-19.5 59.85c-.44 1.1 0 1.54.67 1.54h42.31c1.11 0 1.11-.65.89-1.54zM300.8 169.98c0 .94-.94 1.24-3.73 1.24h-11.01c-8.69 0-12.57-.77-16.6-2.95-6.66-3.55-12.1-11.17-20.94-22.83-6.49-8.54-13.76-18.95-16.86-22.99-.62-.63-1.09-.93-2.01-.93l-19.04-.31c-.77 0-1.08.47-1.08 1.24v3.72c0 14.93 0 27.2.78 33.73.46 4.49 1.38 7.91 6.04 8.54 2.16.3 5.56.61 6.97.61.92 0 1.22.46 1.22.93 0 .79-.77 1.24-2.47 1.24-8.5 0-18.27-.45-19.04-.43-.15 0-9.91.45-14.55.43-1.71 0-2.49-.3-2.49-1.24 0-.47.31-.93 1.24-.93 1.39 0 3.26-.31 4.65-.61 3.09-.63 3.88-4.05 4.5-8.54.78-6.53.78-18.8.78-33.73V98.9c0-24.18 0-28.5-.31-33.47-.3-5.28-1.55-7.72-6.68-8.79-1.22-.3-3.87-.46-5.26-.46-.63 0-1.24-.29-1.24-.89 0-.91.77-1.22 2.48-1.22 6.97 0 16.73.46 17.51.45 1.7 0 13.46-.48 18.25-.45 9.75 0 20.12.9 28.32 6.71 3.88 2.78 10.7 10.39 10.7 21.06 0 11.48-4.81 22.95-18.75 35.81 12.7 16.3 23.25 30.13 32.25 39.76 8.37 8.85 15.04 10.56 18.93 11.18 2.93.46 5.11.46 6.04.46.78 0 1.4.46 1.4.93zm-52.89-80.06c0-19.38-10.22-30.99-26.78-30.99-4.63 0-8.81.45-10.36.91-.77.31-1.24.94-1.24 1.87v50.69c0 .77.31 1.38 1.08 1.86 2.32 1.39 9.45 2.48 16.25 2.48 3.71 0 8.06-.47 11.6-2.96 5.43-3.71 9.45-12.09 9.45-23.86z" />
      <path d="M386.45 52.96c-1.24-.05-5.43 1.48-15.35 1.48h-58.16c-1.87.13-7.77-.18-12.26-.65-4.18-.39-5.73-1.94-6.83-1.94-.61 0-1.24 2.02-1.55 2.95-.3 1.24-3.4 14.57-3.4 16.13 0 .92.31 1.4.78 1.4.61 0 1.07-.33 1.55-1.56.46-1.1.93-2.17 2.62-4.81 2.48-3.65 6.22-4.73 15.83-4.89l22.96-.3v65.52c0 14.88 0 27.11-.78 33.64-.63 4.47-1.4 7.88-4.5 8.51-1.4.3-3.25.61-4.66.61-.92 0-1.23.46-1.23.93 0 .94.78 1.24 2.47 1.24 4.66.02 14.42-.43 15.2-.43.79-.02 10.55.43 19.09.43 1.7 0 2.48-.45 2.48-1.24 0-.47-.3-.93-1.24-.93-1.41 0-4.81-.31-6.98-.61-4.65-.63-5.59-4.04-6.06-8.51-.78-6.53-.78-18.76-.78-33.64V60.77l19.56.3c14.88.33 18.46 3.88 19.07 8.53l.16 1.7c.14 2.18.47 2.63 1.25 2.63.61 0 1.07-.62 1.07-2 0-1.72.47-12.41.47-17.06 0-.98 0-1.91-.78-1.91zM536.65 169.05c-1.41 0-4.82-.31-6.99-.61-4.65-.63-5.6-4.04-6.05-8.53-.77-6.51-.77-18.75-.77-33.64V99.03c0-24.19 0-28.53.3-33.48.3-5.44 1.55-8.08 5.75-8.85 1.85-.3 2.78-.47 3.86-.47.63 0 1.25-.3 1.25-.93 0-.92-.77-1.23-2.49-1.23-4.65-.03-14.42.45-15.2.45-.77.01-12.4-.45-17.52-.45-1.71 0-2.48.31-2.48 1.23 0 .63.61.93 1.24.93 1.39 0 4.04.17 5.28.47 5.11 1.08 6.05 3.41 6.51 7.13.31 2.63.46 9.14.46 35.19v27.25c0 18.92-.31 31.47-1.09 35.51-.93 4.48-1.71 5.88-4.18 6.66-1.39.46-3.25.61-4.66.61-.93 0-1.24.46-1.24.93 0 .94.77 1.24 2.49 1.24 2.79.02 14.42-.43 15.19-.43.78-.02 10.55.43 19.08.43 1.7 0 2.49-.45 2.49-1.24 0-.47-.32-.93-1.23-.93zM478.93 149.7c-.92 0-1.24.77-1.38 2.02-.47 2.94-2.02 6.8-4.04 9.29-3.72 4.51-10.55 4.65-18.76 4.65-12.1 0-16.14-1.09-18.62-3.57-2.8-2.78-3.42-12.7-3.42-35.49V99.03c0-24.19 0-28.53.32-33.48.3-5.44 1.55-8.08 6.05-8.85 1.85-.3 4.04-.47 5.12-.47.61 0 1.24-.3 1.24-.93 0-.92-.77-1.23-2.49-1.23-4.65-.03-15.96.45-16.74.45-.78.01-10.55-.45-17.54-.45-1.69 0-2.49.31-2.49 1.23 0 .63.63.93 1.25.93 1.4 0 4.03.17 5.28.47 5.11 1.08 6.36 3.57 6.67 8.84.31 4.96.31 9.3.31 33.48v27.25c0 14.89 0 27.13-.78 33.66-.62 4.47-1.4 7.88-4.5 8.51-1.4.3-3.25.61-4.64.61-.94 0-1.25.46-1.25.93 0 .94.78 1.24 2.47 1.24 4.67.02 13.81-.43 15.22-.43 8.99-.1 19.23.84 41.56.84 8.23.08 8.68-.54 9.78-4.1 1.24-4.49 2.32-13.8 2.32-15.5 0-1.71-.16-2.33-.94-2.33zM680.72 54.07c-6.38-.03-11.48.45-13.17.45-1.69.01-9.14-.45-16.13-.45-1.86-.04-3.11.1-3.11 1.05 0 .61.15 1.06 1.25 1.06 1.24 0 4.8.18 7.63.79 4.69 1.24 5.79 4.65 5.93 14.73l1.81 78.76c-4.96-5.11-21.9-24.02-37.29-40.46-23.94-25.59-47.09-50.55-49.43-53.2-1.54-1.54-4.17-4.95-5.4-4.95-1.25 0-1.71 1.71-1.71 7.74l-.14 88.87c0 14.1-.77 18.6-4.67 19.69-2.32.76-5.12.93-6.35.93-.77 0-1.25.3-1.25.92 0 1.07.94 1.22 2.48 1.22 6.99.02 13.5-.43 14.88-.43 1.39-.02 7.61.43 16.46.43 1.85 0 2.79-.3 2.79-1.24 0-.6-.47-.9-1.25-.9-1.4 0-4.82-.17-7.76-.93-4.2-1.25-5.74-5.27-6.05-17.99l-2.03-74.27c4.98 5.58 22.55 25.13 40.56 44.5 16.49 17.68 38.87 40.46 40.58 42.01 8.2 8.22 10.05 9.94 11.28 9.94 1.08 0 1.4-.77 1.4-11.02l.15-90.86c.16-9.29.77-12.72 5.9-13.8 1.85-.48 2.94-.48 3.72-.48 1.07 0 1.7-.45 1.7-1.06 0-.91-1.08-1.05-2.78-1.05z" />
    </g>
  </g>
</svg>
