<svg xmlns="http://www.w3.org/2000/svg" viewBox="0 0 146.8024 120.4146">
  <path fill="none" d="M0 0h146.8024v120.4146H0z" />
  <path
    fill="#fff"
    d="M36.3452 105.2586v-5.9993a3.558 3.558 0 00-3.7594-3.7994 3.702 3.702 0 00-3.3595 1.6997 3.511 3.511 0 00-3.1596-1.6997 3.1612 3.1612 0 00-2.7996 1.4198v-1.1798h-2.0798v9.5587h2.0997v-5.2994a2.2357 2.2357 0 012.3397-2.5396c1.3798 0 2.0798.8999 2.0798 2.5196v5.3194h2.0997v-5.2994a2.2544 2.2544 0 012.3397-2.5396c1.4197 0 2.0996.8999 2.0996 2.5196v5.3194zm31.0758-9.5587h-3.3995v-2.8996h-2.0997v2.8996H59.982v1.8997h1.9398v4.3594c0 2.2196.8599 3.5396 3.3195 3.5396a4.8847 4.8847 0 002.5996-.74l-.5998-1.7798a3.8386 3.8386 0 01-1.8398.54c-1.0399 0-1.3798-.6401-1.3798-1.5997v-4.3195h3.3995zm17.7376-.24a2.8192 2.8192 0 00-2.5196 1.3998v-1.1598h-2.0598v9.5587h2.0797v-5.3594c0-1.5797.6799-2.4596 2.0399-2.4596a3.3883 3.3883 0 011.2997.24l.6399-1.9598a4.4462 4.4462 0 00-1.4798-.2599zm-26.8163.9998a7.148 7.148 0 00-3.8995-.9998c-2.4197 0-3.9794 1.1598-3.9794 3.0595 0 1.5599 1.1598 2.5198 3.2994 2.8197l.9799.1399c1.1398.1598 1.6798.4599 1.6798.9998 0 .7399-.76 1.16-2.1797 1.16a5.0916 5.0916 0 01-3.1796-1l-.9798 1.6198a6.8973 6.8973 0 004.1394 1.24c2.7596 0 4.3593-1.3 4.3593-3.1197 0-1.6798-1.2597-2.5597-3.3394-2.8597l-.9798-.14c-.9-.1199-1.6198-.2997-1.6198-.9396 0-.7.6797-1.12 1.8197-1.12a6.163 6.163 0 012.9796.8199zm55.7123-.9998a2.8192 2.8192 0 00-2.5196 1.3998v-1.1598h-2.0597v9.5587h2.0796v-5.3594c0-1.5797.68-2.4596 2.0397-2.4596a3.3889 3.3889 0 011.3.24l.6399-1.9598a4.4467 4.4467 0 00-1.4799-.2599zm-26.7964 5.0191a4.8294 4.8294 0 005.0995 5.0196 5.0068 5.0068 0 003.4394-1.14l-.9998-1.6798a4.2019 4.2019 0 01-2.4997.8599 3.0652 3.0652 0 010-6.1191 4.2013 4.2013 0 012.4997.86l.9998-1.6799a5.0077 5.0077 0 00-3.4394-1.1398 4.8293 4.8293 0 00-5.0995 5.0191zm19.4774 0v-4.7791h-2.0797v1.1598a3.6262 3.6262 0 00-3.0196-1.3998 5.0254 5.0254 0 000 10.0387 3.6263 3.6263 0 003.0196-1.4v1.16h2.0797zm-7.739 0a2.8944 2.8944 0 112.8998 3.0597 2.8675 2.8675 0 01-2.8998-3.0597zm-25.0964-5.0191a5.0236 5.0236 0 00.14 10.0387 5.8095 5.8095 0 003.9194-1.34l-1.0199-1.5397a4.5536 4.5536 0 01-2.7796.9998 2.6547 2.6547 0 01-2.8596-2.3398h7.0991c.02-.2598.0399-.5198.0399-.7999-.0199-2.9794-1.8597-5.0191-4.5393-5.0191zm-.0401 1.8597a2.3741 2.3741 0 012.4197 2.3197h-4.9593a2.4609 2.4609 0 012.5396-2.3197zm52.1729 3.1594v-8.6185h-2.0798v4.9992a3.6261 3.6261 0 00-3.0195-1.3998 5.0254 5.0254 0 000 10.0387 3.6262 3.6262 0 003.0195-1.4v1.16h2.0798zm3.4668 3.3943a.954.954 0 01.3762.0746.976.976 0 01.3074.2037.9573.9573 0 01.2071.3027.9339.9339 0 010 .7371.9645.9645 0 01-.2071.3015.998.998 0 01-.3074.2048.9391.9391 0 01-.3762.0758.968.968 0 01-.8976-.5821.9363.9363 0 010-.7371.9632.9632 0 01.2062-.3027.9491.9491 0 01.3085-.2037.9816.9816 0 01.3829-.0746zm0 1.6906a.7074.7074 0 00.2866-.0582.7542.7542 0 00.2327-.1584.7447.7447 0 000-1.048.7383.7383 0 00-.2327-.157.7169.7169 0 00-.2866-.0571.7473.7473 0 00-.2922.0571.7299.7299 0 00-.2363.157.7445.7445 0 000 1.048.745.745 0 00.2363.1584.7374.7374 0 00.2922.0582zm.0559-1.1854a.4017.4017 0 01.2621.0758.253.253 0 01.0919.2061.2399.2399 0 01-.0733.1803.3496.3496 0 01-.2085.0874l.2888.333h-.2258l-.2678-.3307h-.0862v.3307h-.1886v-.8826zm-.2188.1655v.2352h.2166a.2132.2132 0 00.1188-.0293.0996.0996 0 00.0441-.0895.098.098 0 00-.0441-.0875.215.215 0 00-.1188-.0289zm-11.0428-4.065a2.8942 2.8942 0 112.8995 3.0597 2.8674 2.8674 0 01-2.8995-3.0597zm-70.2304 0v-4.7791h-2.0798v1.1598a3.6262 3.6262 0 00-3.0196-1.3998 5.0254 5.0254 0 000 10.0387 3.6263 3.6263 0 003.0196-1.4v1.16h2.0798zm-7.7389 0a2.8942 2.8942 0 112.8995 3.0597 2.8674 2.8674 0 01-2.8995-3.0597z"
  />
  <path fill="#ff5f00" d="M57.6515 22.8537h31.5v56.6064h-31.5z" />
  <path
    fill="#eb001b"
    d="M59.6517 51.1569a35.9375 35.9375 0 0113.75-28.3032 36 36 0 100 56.6064 35.938 35.938 0 01-13.75-28.3032z"
  />
  <path
    fill="#f79e1b"
    d="M131.6468 51.1569a35.9987 35.9987 0 01-58.2452 28.3032 36.0052 36.0052 0 000-56.6064 35.9987 35.9987 0 0158.2452 28.3032zM128.2118 73.4638v-1.1589h.4673v-.2361h-1.1901v.2361h.4675v1.1589zm2.3105 0v-1.3973h-.3648l-.4196.9611-.4197-.9611h-.365v1.3973h.2576v-1.054l.3935.9087h.2671l.3935-.911v1.0563z"
  />
</svg>
