<svg
  xmlns="http://www.w3.org/2000/svg"
  fill="#fff"
  preserveAspectRatio="xMidYMid"
  viewBox="0 0 256 114"
><path
    d="M97.1965 1.4597L63.6813 81.418H41.814L25.3195 17.6043c-.9987-3.9213-1.8683-5.3646-4.9119-7.022C15.4336 7.8802 7.22 5.3532 0 3.7807l.4871-2.3211h35.2038c4.4803 0 8.5144 2.983 9.5393 8.1483l8.7156 46.273L75.4616 1.4598h21.735zm29.5612 0L109.6536 81.418H88.9664l17.1042-79.9583h20.6871zm56.1149 53.8526c.0866-21.099-29.1739-22.2694-28.9826-31.6977.0703-2.8654 2.8-5.9171 8.776-6.6968 2.9602-.3825 11.138-.6881 20.401 3.5797l3.624-16.9652C181.7135 1.7326 175.3093 0 167.3424 0c-20.4501 0-34.836 10.8617-34.9504 26.4277-.134 11.514 10.275 17.9313 18.1029 21.766 8.0633 3.9164 10.7669 6.4337 10.7293 9.9333-.0572 5.3646-6.4386 7.7397-12.372 7.828-10.4041.165-16.4357-2.8115-21.2462-5.0525L123.8515 78.43c4.84 2.2181 13.7598 4.1453 22.9984 4.2433 21.7398 0 35.959-10.7375 36.0227-27.361zm54.0013 26.1057H256L239.2898 1.4597h-17.6469c-3.9801 0-7.3245 2.3096-8.8087 5.8615L181.7937 81.418h21.7235l4.3087-11.9438h26.5406l2.5074 11.9438zm-23.0916-28.3288l10.8928-30.027 6.2571 30.027h-17.1499zm-60.55 50.338h-8.4049v7.823h9.402v2.3522h-12.2347V91.8985h11.7526v2.3522h-8.9199v6.857h8.405v2.3195zm5.3394-12.6866h2.8327v22.8611h-2.8327V90.7406zm9.9786 15.5835c.0637 3.833 2.4796 5.4104 5.3434 5.4104 2.0301 0 3.2855-.3547 4.3169-.8042l.5149 2.0285c-.9987.4495-2.7363.9971-5.2176.9971-4.7958 0-7.6612-3.1874-7.6612-7.8884 0-4.701 2.7673-8.3723 7.3082-8.3723 5.1194 0 6.4402 4.4444 6.4402 7.3098 0 .5787-.0327.9971-.0981 1.3191h-10.9467zm8.3069-2.0285c.0327-1.7702-.7405-4.5719-3.928-4.5719-2.898 0-4.1223 2.6088-4.3479 4.572h8.2759zm18.1542 8.7587c-.7405.3547-2.3832.9023-4.4755.9023-4.701 0-7.7593-3.1874-7.7593-7.9538 0-4.7975 3.2822-8.307 8.3706-8.307 1.6738 0 3.1548.4169 3.928.837l-.6425 2.1576c-.6783-.3547-1.7408-.742-3.2855-.742-3.5748 0-5.5052 2.6724-5.5052 5.8942 0 3.6058 2.3178 5.8272 5.4088 5.8272 1.61 0 2.6725-.3857 3.4767-.7404l.4839 2.1249zm7.9477-18.772v3.735h4.0554v2.156h-4.0554v8.4049c0 1.9337.5476 3.0272 2.125 3.0272.7715 0 1.2243-.0637 1.6427-.1945l.1292 2.1593c-.5476.1928-1.4172.3857-2.5124.3857-1.3207 0-2.3832-.4511-3.0583-1.19-.7731-.8712-1.0951-2.254-1.0951-4.0896v-8.503h-2.416v-2.156h2.416V95.119l2.769-.8369zm8.0134 8.5974c0-1.8356-.0344-3.413-.1292-4.8628h2.4797l.1291 3.091h.0948c.7094-2.0923 2.447-3.413 4.3463-3.413.291 0 .5166.0327.7748.0637v2.6742c-.291-.0654-.5786-.0654-.9676-.0654-1.9942 0-3.413 1.481-3.7988 3.6075-.0637.3858-.0964.868-.0964 1.3207v8.307h-2.8327v-10.7229zm25.1107 2.8009c0 5.7635-4.026 8.2758-7.7609 8.2758-4.1861 0-7.4684-3.0926-7.4684-8.0176 0-5.1848 3.444-8.2431 7.7267-8.2431 4.4754 0 7.5026 3.2512 7.5026 7.9849zm-12.3328.1618c0 3.413 1.932 5.989 4.701 5.989 2.7052 0 4.7321-2.545 4.7321-6.0544 0-2.6398-1.319-5.958-4.6683-5.958-3.315 0-4.7648 3.0926-4.7648 6.0234zm16.6746-3.6077c0-1.641-.0343-2.9291-.1291-4.2171h2.5107l.1618 2.576h.0637c.7732-1.4498 2.5761-2.898 5.1522-2.898 2.156 0 5.5052 1.288 5.5052 6.6314v9.2746h-2.8327v-8.9837c0-2.5107-.9333-4.6045-3.6058-4.6045-1.8357 0-3.2855 1.3207-3.7988 2.898-.1308.3548-.1945.837-.1945 1.3208v9.3694h-2.8327v-11.3669z"
  /></svg>
